<?xml version="1.0" encoding="utf-8"?>
<!-- Generator: Adobe Illustrator 16.0.0, SVG Export Plug-In . SVG Version: 6.00 Build 0)  -->
<!DOCTYPE svg PUBLIC "-//W3C//DTD SVG 1.1//EN" "http://www.w3.org/Graphics/SVG/1.1/DTD/svg11.dtd" [
	<!ENTITY ns_extend "http://ns.adobe.com/Extensibility/1.0/">
	<!ENTITY ns_ai "http://ns.adobe.com/AdobeIllustrator/10.0/">
	<!ENTITY ns_graphs "http://ns.adobe.com/Graphs/1.0/">
	<!ENTITY ns_vars "http://ns.adobe.com/Variables/1.0/">
	<!ENTITY ns_imrep "http://ns.adobe.com/ImageReplacement/1.0/">
	<!ENTITY ns_sfw "http://ns.adobe.com/SaveForWeb/1.0/">
	<!ENTITY ns_custom "http://ns.adobe.com/GenericCustomNamespace/1.0/">
	<!ENTITY ns_adobe_xpath "http://ns.adobe.com/XPath/1.0/">
]>
<svg version="1.1" id="Layer_1" xmlns:x="&ns_extend;" xmlns:i="&ns_ai;" xmlns:graph="&ns_graphs;"
	 xmlns="http://www.w3.org/2000/svg" xmlns:xlink="http://www.w3.org/1999/xlink" x="0px" y="0px" width="640px" height="480px"
	 viewBox="0 0 640 480" enable-background="new 0 0 640 480" xml:space="preserve">
<metadata>
	<sfw  xmlns="&ns_sfw;">
		<slices></slices>
		<sliceSourceBounds  width="459.299" height="459.299" x="90.351" y="-469.649" bottomLeftOrigin="true"></sliceSourceBounds>
	</sfw>
</metadata>
<g>
	<circle fill="#7FCDEE" cx="320" cy="240" r="229.649"/>
	<path opacity="0.4" fill="#0A2B39" d="M547.75,269.633l-153.747-153.75l-33.087-1.94l-12.745-10.979L243.386,207.749
		l-42.363,83.269l-1.207,55.866l-2.504,4.067l-5.159,5.356l112.84,112.841c4.963,0.32,9.963,0.501,15.007,0.501
		C436.791,469.649,533.213,382.467,547.75,269.633z"/>
	<g>
		<path fill="#F0B289" d="M410.142,241.029h-5.892v-24.712c0-41.161-37.626-74.526-84.042-74.526
			c-46.415,0-84.042,33.366-84.042,74.526v24.712h-5.996c-4.558,0-8.253,3.277-8.253,7.319v18.647
			c0,9.008,3.617,17.721,10.202,24.58l3.941,4.107l0.105-1.07v1.07c0,0,10.753,70.924,62.214,94.852
			c12.108,5.631,20.782,6.873,38.2,0c56.636-22.354,67.669-94.852,67.669-94.852l3.944-4.107
			c6.585-6.859,10.199-15.572,10.199-24.58v-18.647C418.394,244.307,414.701,241.029,410.142,241.029z"/>
		<path d="M356.022,343.379c-8.989-5.238-22.815-8.816-33.672-11.221l3.156,6.767c6.272,2.747,12.678,4.95,19.219,7.271
			L356.022,343.379z"/>
		<g>
			<path d="M394.43,173.659c4.789-15.872,8.59-14.023,15.318-6.447c1.236,1.392,2.519,2.995,3.11,5.511
				c0.536,2.275-0.178,4.941,0.254,7.382c9.126,51.546-12.554,133.851-12.554,133.851s-2.932-14.726-5.599-36.171
				c-0.949-7.634-5.446-78.777-9.771-86"/>
		</g>
		<g>
			<path d="M258.879,157.702c-4.427-3.171-9.37-5.921-14.785-7.479c-5.413-1.557-12.355,2.933-16.386,6.495
				c-4.961,4.383-4.519,11.489-3.731,17.659c3.02,23.664,0.862,115.923,16.272,138.543c5.439-30.413,2.683-121.519,23.856-134.926"
				/>
		</g>
		<path d="M253.525,249.69l24.661-11.735h19.49c1.408,0,2.549,1.208,2.549,2.697v1.902c0,1.488-1.141,2.696-2.549,2.696h-19.341
			L253.525,249.69z"/>
		<path d="M384.208,249.69l-24.659-11.735h-19.492c-1.408,0-2.548,1.208-2.548,2.697v1.902c0,1.488,1.14,2.696,2.548,2.696h19.342
			L384.208,249.69z"/>
		<g>
			<g>
				<path d="M216.819,191.316c-0.002,0-0.023-0.792-0.023-1.138c0-58.305,46.183-105.62,103.155-105.62
					s105.43,52.873,105.43,111.177c0,0.347,56.908,130.614,10.044,142.306c0,0-27.661-29.493-24.058-144.667
					C373.935,159.748,216.819,191.316,216.819,191.316z"/>
				<path fill="#FFFFFF" d="M215,223c0,0,0,0.462,0,0.45c0-55.427,25.756-100.245,58.247-100.245
					c19.361,0,36.243,16.017,46.964,40.643c10.722-24.626,27.248-40.558,46.609-40.558c32.49,0,58.18,44.96,58.18,100.387
					c0,0.012,0,0.375,0,0.375s40.406,107.278,12.592,111.066C441.209,312.371,415.467,263,419.764,223C375.16,223,215,223,215,223z"
					/>
				<circle cx="435.425" cy="342.133" r="18.952"/>
			</g>
			<g>
				<path d="M423.181,191.316c0.001,0,0.023-0.792,0.023-1.138c0-58.305-46.183-105.62-103.155-105.62
					c-56.972,0-105.428,52.873-105.428,111.177c0,0.347-56.909,130.614-10.046,142.306c0,0,27.662-29.493,24.06-144.667
					C266.064,159.748,423.181,191.316,423.181,191.316z"/>
				<path fill="#FFFFFF" d="M425,223c0,0,0,0.462,0,0.45c0-55.427-25.756-100.245-58.246-100.245
					c-19.361,0-36.244,16.017-46.965,40.643c-10.722-24.626-27.248-40.558-46.609-40.558c-32.49,0-58.18,44.96-58.18,100.387
					c0,0.012,0,0.375,0,0.375s-40.407,107.278-12.593,111.066C198.792,312.371,224.532,263,220.236,223C264.84,223,425,223,425,223z
					"/>
				<circle cx="204.574" cy="342.133" r="18.952"/>
			</g>
			<path fill="#F7931E" d="M332.605,183.614l-7.305-4.827c-1.476-0.973-3.415-1.457-5.351-1.457c-1.945,0-3.877,0.484-5.346,1.457
				l-7.309,4.827c-2.942,1.94-3.874,6.006-2.07,9.031l11.444,19.226c0.899,1.51,2.094,2.269,3.281,2.269
				c1.188,0,2.377-0.758,3.279-2.269l11.446-19.226C336.48,189.62,335.548,185.555,332.605,183.614z"/>
			<path fill="none" stroke="#000000" stroke-width="1.5524" stroke-miterlimit="10" d="M304.404,191.885
				c0,0,11.596-5.215,15.739-5.199c4.041,0.019,15.309,5.199,15.309,5.199"/>
			<g>
				<circle fill="#FBDD58" cx="271.026" cy="166.527" r="11.385"/>
				<circle cx="271.026" cy="166.527" r="9.831"/>
			</g>
			<g>
				<circle fill="#FBDD58" cx="364.173" cy="166.527" r="11.386"/>
				<path d="M374.005,166.527c0,5.429-4.405,9.831-9.832,9.831s-9.833-4.402-9.833-9.831c0-5.428,4.406-9.83,9.833-9.83
					S374.005,161.1,374.005,166.527z"/>
			</g>
		</g>
		<path d="M341.402,379c-3.024,5-17.602,2.348-17.856-0.672c0.311-2.776,0.787-5.409,1.492-8.164
			c-1.588,0.154-3.737,0.459-5.886,0.536c-2.151-0.077-4.3-0.278-5.889-0.437c0.637,2.486,1.089,4.725,1.399,7.225
			c-0.184,3.22-14.738,6.512-17.763,1.512h-16.011c5.304,4,11.208,8.437,17.777,11.491c7.188,3.344,13.169,5.271,20.487,4.741
			c7.316,0.529,13.296-1.466,20.484-4.808c6.571-3.057,12.472-7.425,17.779-11.425H341.402z"/>
		<path d="M282.601,343.379c8.989-5.238,22.815-8.816,33.671-11.221l-3.156,6.767c-6.271,2.747-12.678,4.95-19.219,7.271
			L282.601,343.379z"/>
	</g>
</g>
</svg>
